<svg xmlns="http://www.w3.org/2000/svg" width="256" height="256"><path fill-opacity=".016" d="M0 128.004v128.004l128.25-.254 128.25-.254.254-127.75L257.008 0H0v128.004m.485.496c0 70.4.119 99.053.265 63.672.146-35.38.146-92.98 0-128C.604 29.153.485 58.1.485 128.5" fill="#1976D2" fill-rule="evenodd"/><path fill-opacity=".131" d="M177.016 15.707c-1.394 1.773-1.93 3.498-1.553 5 .376 1.499.13 2.293-.709 2.293-2.178 0-9.083 4.037-12.57 7.35-4.429 4.208-7.349 9.081-8.748 14.601l-1.152 4.549-8.392.285-8.392.286V203h21.68l-.732-38-.733-38h3.447c9.369 0 26.588 17.616 51.809 53 4.508 6.325 9.798 14.088 11.755 17.25l3.558 5.75h12.858c7.072 0 12.853-.338 12.846-.75-.043-2.691-15.912-25.122-34.842-49.25-12.115-15.441-28.083-32.333-34.032-36-2.231-1.375-3.956-2.764-3.835-3.086.122-.322 3.596-3.444 7.721-6.938 9.349-7.919 38.461-37.012 46.784-46.752 3.419-4.001 6.216-7.939 6.216-8.75 0-1.217-2.088-1.474-11.961-1.474h-11.962l-1.13-4.25c-1.47-5.532-5.798-13.488-8.488-15.603-1.167-.919-2.429-2.89-2.803-4.38-.485-1.933-2.867-4.153-8.306-7.739-6.175-4.07-8.444-5.028-11.916-5.028-3.471 0-4.695.516-6.418 2.707m1.984 1.21c0 1.054-.535 2.095-1.188 2.312-1.769.59 2.269 5.701 4.534 5.74 1.015.017 3.148.8 4.74 1.741 2.233 1.319 3.165 1.439 4.081.523.916-.916.355-1.535-2.458-2.71-2.005-.838-4.729-1.523-6.054-1.523-1.326 0-2.97-.675-3.655-1.5-1.448-1.745-1.039-1.845 2.324-.567 2.197.835 2.404.704 1.98-1.25l-.474-2.183 1.835 2.09c2.544 2.898 8.125 5.02 9.523 3.622 2.888-2.888-4.195-8.202-10.938-8.208-3.523-.003-4.25.324-4.25 1.913m2 12.461c0 .207.761.995 1.692 1.75.967.784 1.388.865.983.19-.461-.768.261-1.328 2.058-1.6 2.246-.34 2.061-.447-.983-.568-2.062-.083-3.75.02-3.75.228m-3 6.411c0 1.181.283 1.221 1.5.211.825-.685 1.5-1.34 1.5-1.456 0-.116-.675-.211-1.5-.211s-1.5.655-1.5 1.456m1.079 5.794c.048 1.165.285 1.402.604.605.289-.722.253-1.585-.079-1.917-.332-.332-.568.258-.525 1.312M180.5 45c2.749 1.181 4.328 1.181 2.5 0-.825-.533-2.175-.945-3-.914-.989.036-.819.347.5.914m11.372 2.75c-1.243 1.586-1.208 1.621.378.378 1.666-1.307 2.195-2.128 1.372-2.128-.207 0-.995.788-1.75 1.75M40.669 48.978C24.119 51.99 10.863 62.215 6.284 75.5c-2.572 7.464-2.291 20.567.579 27 5.889 13.201 11.941 17.93 41.609 32.511 12.115 5.954 23.675 12.212 25.688 13.906 7.867 6.621 10.844 18.074 6.935 26.682-2.197 4.837-6.02 7.783-13.866 10.688-4.958 1.836-7.95 2.127-22.229 2.164-14.956.039-17.514-.221-27.341-2.78-5.962-1.552-11.002-2.661-11.199-2.464-.197.196-1.238 4.308-2.314 9.136l-1.956 8.779 2.51.954c10.567 4.018 45.128 5.431 59.8 2.445 22.964-4.673 35.628-17.402 37.167-37.361.802-10.403-1.378-19.001-6.924-27.307-6.874-10.295-15.427-15.696-50.95-32.181-17.175-7.97-21.331-12.878-20.602-24.329.487-7.654 2.57-10.918 9.038-14.164 9.915-4.975 30.968-5.102 49.771-.301 4.125 1.054 7.685 1.739 7.912 1.524.686-.654 3.014-17.712 2.525-18.503-1.671-2.705-40.82-4.913-51.768-2.921m135.283 1.073c-.799.505-2.664.925-4.146.934-1.482.008-3.957 1.107-5.5 2.442-2.463 2.13-2.594 2.509-1.071 3.101 1.13.439 2.814-.233 4.827-1.927 4.324-3.638 5.528-3.24 2.441.806-1.429 1.874-2.861 5.024-3.182 7-.549 3.387-.427 3.593 2.142 3.593 1.942 0 2.885-.614 3.283-2.139.308-1.176 1.62-4.132 2.915-6.568 2.008-3.777 2.163-4.706 1.05-6.296-.917-1.308-1.74-1.591-2.759-.946m13.548 2.075c-2.2 1.002-4.773 1.833-5.719 1.848-1.148.017-1.518.548-1.114 1.601.432 1.125.093 1.482-1.186 1.25-2.428-.441-5.198 5.686-2.959 6.545.885.34 2.528-.793 4.215-2.907 1.519-1.904 3.291-3.463 3.936-3.463.646 0 2.446-1.058 4-2.351 1.555-1.293 3.479-2.561 4.276-2.817 1.266-.406 1.266-.532 0-.997-.797-.292-3.249.289-5.449 1.291m5.595 1.624l-2.127 1.75 3.985 2.262 3.985 2.262 1.725-2.633c1.648-2.514 1.64-2.696-.16-4.012-2.533-1.852-4.847-1.736-7.408.371m-32.282 4.933c.721.289 1.584.253 1.916-.079.332-.332-.258-.568-1.312-.525-1.165.048-1.402.285-.604.604m30.367.079c-.913.312-.607.951.993 2.072 2.617 1.833 4.827 2.379 4.827 1.193 0-1.295-4.387-3.755-5.82-3.265M179 60c0 .55.45 1 1 1s1-.45 1-1-.45-1-1-1-1 .45-1 1m-22.282 4.579c-1.343 1.795-1.423 2.245-.328 1.825.801-.307 1.726-1.263 2.056-2.124.935-2.437.226-2.314-1.728.299m4.154-.829c-1.192 1.521-1.175 1.604.128.634.825-.613 2.175-1.365 3-1.671 1.255-.464 1.234-.568-.128-.634-.895-.043-2.245.709-3 1.671m27.29 2.734c-1.577.869-1.956 1.525-1.163 2.015.646.4.953 1.577.681 2.615-.275 1.053-.071 1.628.461 1.299.525-.325.821-1.381.657-2.348-.164-.967.32-2.502 1.075-3.411 1.58-1.905 1.459-1.916-1.711-.17M154 69c0 .55.477 1 1.059 1s.781-.45.441-1-.816-1-1.059-1-.441.45-.441 1m13.762-.293c1.244.239 3.044.23 4-.02s-.062-.446-2.262-.435c-2.2.011-2.982.216-1.738.455m10.051-.024c.721.289 1.584.253 1.916-.079.332-.332-.258-.568-1.312-.525-1.165.048-1.402.285-.604.604m5.744.735c1.067.78 2.153 1.206 2.412.946.551-.55-2.028-2.326-3.41-2.349-.518-.008-.068.623.998 1.403M162 70.43c0 .275.9.981 2 1.57 1.1.589 2 .845 2 .57s-.9-.981-2-1.57c-1.1-.589-2-.845-2-.57m-6 26.044c0 16.265.034 16.526 2.159 16.526 3.367 0 11.729-6.925 21.966-18.191l9.368-10.309-4.497-.75A269.037 269.037 0 00177 82.549a466.119 466.119 0 01-6.437-.884c-1.615-.237-4.165-.003-5.666.521-2.028.707-3.524.541-5.814-.643L156 79.949v16.525m36.677 114.289c-1.136.257-1.608.976-1.25 1.906.315.822.573 7.533.573 14.913 0 12.751.099 13.418 2 13.418 1.831 0 2-.667 2-7.902v-7.902l3.099-1.081c5.614-1.957 6.901-.294 6.901 8.92 0 7.298.167 7.965 2 7.965 1.851 0 2-.667 2-8.929 0-6.783-.378-9.306-1.571-10.5-1.786-1.785-7.605-2.082-10.495-.536-1.803.965-1.934.663-1.934-4.441 0-5.789-.4-6.49-3.323-5.831m-46.083 2.851c-.363.946-.243 2.137.267 2.647 1.548 1.548 4.639.366 4.639-1.775 0-2.578-3.979-3.285-4.906-.872M3.153 214.75c-5.184 4.387-3.328 9.341 5.267 14.056 5.987 3.285 7.509 5.37 5.597 7.674-1.044 1.258-2.803 1.589-7.442 1.399C1.15 237.658.5 237.838.5 239.566c0 1.675.841 1.974 6.278 2.232 5.818.277 6.497.081 9.25-2.673 5.099-5.098 3.324-9.721-5.563-14.49-6.551-3.516-7.315-4.642-4.833-7.124 1.365-1.365 2.721-1.589 6.545-1.082 4.393.583 4.823.459 4.823-1.395 0-1.815-.633-2.034-5.889-2.034-4.154 0-6.499.516-7.958 1.75M122 227v14h2.585c2.55 0 2.581-.089 2.25-6.502-.24-4.652.014-6.502.892-6.5 1.113.002 8.08 8.047 10.111 11.677.509.91 1.905 1.36 3.589 1.157l2.755-.332-3.742-5c-2.058-2.75-5.01-6.357-6.559-8.015l-2.817-3.014 5.554-5.486c5.047-4.984 5.348-5.516 3.291-5.828-1.711-.259-3.461 1.023-7.169 5.25-2.698 3.076-5.206 5.594-5.573 5.594-.367.001-.513-2.474-.324-5.5.332-5.342.267-5.501-2.25-5.501H122v14m-22.75-12.282c-.687.247-1.25 1.803-1.25 3.459v3.011l-4.913-.676c-3.017-.415-5.718-.245-7 .441-1.516.812-2.087.815-2.087.013 0-.608-1.013-.961-2.25-.786-1.237.176-2.138.658-2 1.07.138.412.25 5.025.25 10.25 0 9.467.009 9.5 2.5 9.5 2.456 0 2.5-.14 2.5-7.893 0-8.411.42-9.107 5.498-9.107 1.285 0 2.562-.562 2.84-1.25.286-.709.538-.446.583.607.049 1.159.602 1.656 1.47 1.323 1.084-.416 1.477.98 1.779 6.32.465 8.224 2.512 11.265 7.271 10.799 3.995-.392 4.988-3.799 1.108-3.799-3.174 0-4.785-3.489-4.347-9.41.276-3.728.52-4.03 3.28-4.059 2.027-.021 3.091-.591 3.323-1.781.266-1.361-.341-1.75-2.732-1.75-2.734 0-3.073-.324-3.073-2.941 0-3.147-.75-4.058-2.75-3.341m60.5.085c-1.19.233-1.75 1.281-1.75 3.27 0 2.26-.456 2.927-2 2.927-1.163 0-2 .667-2 1.594 0 .876.9 1.829 2 2.116 1.737.454 2 1.364 2 6.907 0 7.158 2.008 10.383 6.465 10.383 1.441 0 2.909-.83 3.535-2 .957-1.788.76-2-1.858-2-3.488 0-4.142-1.322-4.142-8.371 0-5.012.103-5.206 2.723-5.168 1.812.026 2.839-.546 3.073-1.711.272-1.357-.326-1.75-2.662-1.75-2.674 0-3.048-.369-3.324-3.271-.236-2.496-.725-3.189-2.06-2.926m61.638 5.177c-8.218 3.32-8.672 16.828-.704 20.903 4.218 2.157 12.316 1.178 12.316-1.49 0-1.005-1.393-1.393-5-1.393-3.667 0-5.533-.533-7-2-2.274-2.274-2.59-3.979-.75-4.045 5.071-.182 12.399-1.272 13.108-1.95.475-.455.315-2.467-.36-4.51-.888-2.692-2.124-4.068-4.575-5.092-3.796-1.586-4.11-1.605-7.035-.423m-198.471.432c-.229.227-.275 4.952-.101 10.5.289 9.197.488 10.088 2.25 10.088 1.747 0 1.934-.756 1.934-7.839 0-7.304.164-7.915 2.399-8.933 3.172-1.445 6.286-.54 6.956 2.022.297 1.136.274 4.92-.052 8.408-.592 6.34-.591 6.342 2.052 6.342 2.64 0 2.645-.014 2.645-8.032 0-7.377.181-8.099 2.213-8.851 5.478-2.027 7.195.777 6.629 10.82-.323 5.726-.216 6.067 1.908 6.065 2.164-.002 2.25-.342 2.25-8.847 0-7.299-.32-9.134-1.829-10.5-2.088-1.89-7.331-2.175-10.344-.562-1.477.79-2.344.79-3.134 0-1.384-1.384-7.217-1.418-9.759-.058-1.333.714-1.934.714-1.934 0 0-.99-3.216-1.481-4.083-.623m36.75.255c-.367.366-.667 1.325-.667 2.131 0 1.12.838 1.328 3.57.884 4.206-.682 8.43.673 8.43 2.705 0 .896-1.497 1.69-3.971 2.108-5.424.917-9.029 3.919-9.029 7.521 0 4.793 6.153 7.578 11.005 4.981 1.187-.635 2.091-.651 2.466-.043.326.527 1.254.705 2.061.395 1.136-.435 1.468-2.541 1.468-9.301C75 221.291 74.018 220 65.838 220c-3.028 0-5.805.3-6.171.667m87.129.083c-.177.412-.172 5.137.01 10.5.301 8.853.509 9.75 2.263 9.75 1.785 0 1.931-.791 1.931-10.5 0-9.727-.143-10.5-1.941-10.5-1.068 0-2.086.338-2.263.75m29.421.811c-7.967 5.58-5.785 18.304 3.436 20.034 4.292.805 8.347-.222 8.347-2.114 0-1.047-1.108-1.481-3.777-1.481-5.75 0-8.223-2.236-8.223-7.434 0-5.296 1.813-7.038 7.104-6.827 3.247.129 3.896-.169 3.896-1.792 0-1.626-.705-1.947-4.277-1.947-2.353 0-5.281.702-6.506 1.561m61.579-.811c-.177.412-.172 5.137.01 10.5.301 8.853.509 9.75 2.263 9.75 1.745 0 1.931-.76 1.931-7.902 0-7.725.062-7.924 2.755-8.863 1.553-.541 3.735-.598 5-.13 2.071.766 2.245 1.452 2.245 8.863 0 7.365.166 8.032 2 8.032 1.851 0 2-.667 2-8.929 0-6.783-.378-9.306-1.571-10.5-1.786-1.785-7.605-2.082-10.495-.536-1.333.714-1.934.714-1.934 0 0-1.178-3.712-1.43-4.204-.285m-17.141 4.079C218.147 227.6 218.568 228 224 228c3.436 0 5-.407 5-1.3 0-3.69-5.569-4.939-8.345-1.871m-153.832 6.947c-3.221.412-5.271 2.614-4.443 4.772.434 1.131 1.661 1.486 4.362 1.263 3.08-.255 3.818-.738 4.093-2.676.417-2.953-.591-3.797-4.012-3.359" fill="#1976D2" fill-rule="evenodd"/><path fill-opacity=".459" d="M177 15.999c-1.257 1.766-1.893 3.763-1.546 4.856.472 1.487-.309 2.2-3.921 3.579-5.098 1.947-12.483 8.641-15.104 13.691-.964 1.856-2.27 5.4-2.904 7.875l-1.151 4.5-8.765.29-8.766.29.786 13.71c1.006 17.58.989 100.885-.025 121.46l-.777 15.75h21.851l-.477-38-.476-38h2.322c6.574 0 17.723 8.916 31.067 24.846 8.805 10.51 22.185 28.599 31.367 42.404L226.3 202h12.909c10.053 0 12.746-.277 12.173-1.25-2.924-4.967-12.39-18.443-21.248-30.25-22.582-30.098-36.552-45.943-46.17-52.365l-5.922-3.955 8.229-6.999C196.535 98.45 232.532 62.066 236.907 56l3.245-4.5-12.284-.5-12.283-.5-.78-3.766c-.995-4.803-4.04-10.773-7.63-14.956-1.546-1.803-3.392-4.726-4.101-6.495-.709-1.769-2.17-3.496-3.247-3.838-1.077-.342-3.433-1.916-5.234-3.498-6.717-5.897-14.191-6.725-17.593-1.948m1.342.602c-1.368 2.087-1.465 2.927-.494 4.25.665.907 1.474 2.437 1.798 3.399.323.962 1.547 1.764 2.721 1.781 1.173.017 4.364 1.124 7.091 2.459 5.199 2.547 6.161 2.566 5.217.105-.793-2.065-6.398-4.861-11.094-5.534-2.155-.308-4.119-1.167-4.365-1.908-.353-1.064-.016-1.116 1.603-.25 2.84 1.52 3.502 1.376 2.745-.597-.596-1.552-.5-1.562 1.143-.114 2.087 1.839 11.891 6.88 13.023 6.696 2.001-.325 3.329.208 2.77 1.112-.34.55-.141 1 .441 1 2.226 0 .97-3.995-1.691-5.379-1.512-.787-3.875-2.657-5.25-4.155-5.222-5.689-12.888-7.092-15.658-2.865m1.202 12.328c-.364.589.04 1.071.897 1.071s1.559.675 1.559 1.5c0 .866-.904 1.5-2.14 1.5-1.995 0-2.101.371-1.575 5.474.311 3.011.85 5.936 1.199 6.5 1.068 1.728 5.043 1.146 8.618-1.264 2.966-1.998 3.422-2.874 3.595-6.892.14-3.261-.297-5.04-1.5-6.102-2.209-1.95-9.769-3.218-10.653-1.787m4.456 1.88c0 .445.609 1.642 1.353 2.659 1.262 1.725 1.511 1.741 3.667.23l2.314-1.62-2.732-1.039c-3.284-1.249-4.602-1.315-4.602-.23m-4.364 5.697c-.826 2.152.046 3.553 1.795 2.882.752-.288 1.664-.044 2.027.544.363.587.007 1.068-.792 1.068s-1.711.675-2.028 1.5c-.35.914-.001 1.5.893 1.5.808 0 1.469-.472 1.469-1.048 0-.577 1.374-1.626 3.054-2.333 2.675-1.124 2.861-1.444 1.5-2.574-1.049-.871-1.554-.926-1.554-.167 0 .617-.436 1.122-.969 1.122-.532 0-.679-.753-.326-1.674.504-1.312.244-1.521-1.201-.966-1.039.399-2.146.22-2.535-.41-.457-.739-.908-.551-1.333.556m11.928 7.201c-.542 1.425-.428 1.54.56.56.684-.679.991-1.486.683-1.793-.308-.308-.867.247-1.243 1.233m-1.258 4.853c-2.043 1.865-2.24 2.287-.724 1.555 2.075-1.002 5.174-4.115 4.096-4.115-.311 0-1.829 1.152-3.372 2.56M43.5 49.046C30.973 50.7 22.105 54.973 14.645 62.949 7.082 71.034 5.5 75.453 5.5 88.5c0 10.031.247 11.504 2.808 16.719 5.019 10.221 11.979 15.373 38.215 28.292 31.295 15.411 36.409 20.179 36.451 33.989.04 12.976-8.998 19.513-29.685 21.47-13.752 1.301-27.439-.376-44.821-5.491-1.847-.544-2.197.192-3.836 8.076-.991 4.771-1.427 9.041-.967 9.489.459.448 4.66 1.634 9.335 2.636 12.235 2.62 44.49 2.562 54.5-.098 20.4-5.422 30.801-15.75 33.522-33.287 1.993-12.844-1.771-25.727-10.181-34.852-6.105-6.623-14.034-11.727-29.743-19.145-25.932-12.247-30.05-14.502-33.539-18.365-9.448-10.457-5.803-25.795 7.236-30.458 9.718-3.476 31.681-2.957 47.989 1.133 3.492.876 6.519 1.422 6.728 1.214.208-.209 1.001-4.307 1.761-9.108l1.383-8.73-3.905-1.051c-8.995-2.422-33.469-3.443-45.251-1.887m140.75-.266c-2.408.384-3.177 3.22-.872 3.22 1.342 0 4.296-2.785 3.515-3.314-.216-.146-1.405-.104-2.643.094m7.876 1.702c-1.856 1.311-5.177 2.689-7.381 3.061-2.995.506-3.658.926-2.626 1.661 1.091.778 1.031.873-.286.453-1.907-.607-3.042 1.498-2.207 4.093.425 1.322.327 1.421-.4.404-.733-1.024-1.234-.57-2.095 1.899C175.757 65.997 175.756 66 177 66c.55 0 1-.702 1-1.559s.405-1.309.899-1.003c.495.305 2.281-1.018 3.97-2.941 1.688-1.923 3.581-3.497 4.206-3.497.625 0 2.473-1.125 4.107-2.5 1.634-1.375 3.724-2.482 4.645-2.46 1.068.026.611.615-1.266 1.631l-2.94 1.591 3.732 1.915c2.053 1.053 4.568 3.289 5.59 4.97 1.813 2.98 1.875 3 2.567.822.564-1.779.905-1.952 1.674-.851.653.934.765.086.345-2.618-.373-2.406-1.598-4.877-3.075-6.202-1.35-1.211-2.454-2.626-2.454-3.143 0-.893-2.398-2.211-3.832-2.106-.367.027-2.186 1.122-4.042 2.433m-20.066.04c-6.361 1.493-9.151 4.207-6.396 6.222 1.486 1.086 2.139.822 4.585-1.855 3.434-3.761 4.773-3.191 1.839.782-2.283 3.092-4.245 8.839-3.33 9.754.316.316 1.85.575 3.409.575 2.027 0 2.836-.498 2.845-1.75.007-.962 1.132-3.708 2.5-6.102 2.871-5.023 2.908-5.239 1.238-7.334-1.092-1.371-1.937-1.407-6.69-.292m-10.549 7.46c-.27.437.831.988 2.446 1.225 1.616.237 2.743.117 2.506-.267-.687-1.111-4.412-1.832-4.952-.958m29.005-.008c-.32.518.803 1.657 2.496 2.532 1.692.875 3.907 2.957 4.922 4.626 2.476 4.071 3.801 1.812 1.375-2.343-1.922-3.29-7.76-6.486-8.793-4.815m-4.783 3.15c.679.684 1.486.991 1.793.683.308-.308-.247-.867-1.233-1.243-1.425-.542-1.54-.428-.56.56m-27.962 1.626C155.454 65.386 152 72.657 152 74.899c0 1.578.91 2.115 4.49 2.652 2.469.37 4.272 1.025 4.006 1.456-.815 1.319 1.828 1.724 5.254.806 4.045-1.083 4.116-2.314.25-4.313-3.525-1.823-3.966-2.941-.758-1.923 2.026.643 2.105.546.823-.999-2.104-2.535-7.033-4.82-9.183-4.257-1.125.294-1.63.081-1.254-.529.347-.561 2.345-.791 4.44-.51 2.843.382 4.217.06 5.418-1.267 1.48-1.635 1.475-1.912-.065-3.451-1.566-1.566-1.828-1.53-4.048.555-2.364 2.221-3.457 1.365-1.173-.919.736-.736.796-1.2.155-1.2-.575 0-1.737.788-2.584 1.75m26.67.782c1.068.807 2.418 1.454 3 1.436.583-.017.185-.692-.882-1.5-1.068-.807-2.418-1.454-3-1.436-.583.017-.185.692.882 1.5m7.559-.517c0 .558-1.339 1.829-2.976 2.824-2.28 1.387-2.701 2.084-1.8 2.985.901.901.896 1.456-.024 2.376-.933.933-1.2.83-1.2-.465 0-.915-.87-2.13-1.934-2.7-2.373-1.27-8.066-1.369-8.066-.14 0 .52-1.567.533-3.75.031-3.813-.879-7.25-.415-7.25.978 0 .423 2.475 2.021 5.5 3.552 3.025 1.53 5.5 3.19 5.5 3.689 0 .498-1.35.208-3-.645s-3-1.324-3-1.046 1.688 1.354 3.75 2.39c4.244 2.134 11.25 3.657 11.25 2.445 0-.44 1.238-1.356 2.75-2.035 1.512-.678 4.247-2.153 6.077-3.276 2.955-1.814 3.275-2.432 2.858-5.528-.476-3.527-2.201-6.45-3.807-6.45-.483 0-.878.457-.878 1.015M181 65c0 .55 1.012.993 2.25.985 1.819-.013 1.963-.201.75-.985-1.939-1.253-3-1.253-3 0m22 3.872c0 1.471-5.982 7.592-11.765 12.04-4.175 3.211-4.37 3.255-9.203 2.096-2.715-.652-5.412-.891-5.992-.533-.58.358-1.314-.026-1.632-.855-.404-1.052-1.231-1.283-2.743-.768-2.821.962-11.674.805-13.915-.245-1.631-.765-1.75.351-1.75 16.353v17.175l2.25-.682c4.804-1.454 9.112-5.023 20.247-16.767 6.353-6.702 13.21-13.086 15.236-14.186 3.671-1.993 11.244-12.857 9.899-14.201-.347-.348-.632-.09-.632.573M192 226c0 14.333.089 15 2 15 1.833 0 2-.667 2-7.965 0-7.008.246-8.097 2.052-9.063 5.864-3.138 9.248 1.258 8.296 10.778-.594 5.943-.517 6.25 1.551 6.25 2.098 0 2.166-.331 1.889-9.215-.276-8.831-.4-9.277-2.979-10.722-2.164-1.212-3.487-1.295-6.75-.424L196 221.722v-5.361c0-4.694-.249-5.361-2-5.361-1.911 0-2 .667-2 15m-44.333-13.333c-1.443 1.443-.625 4.333 1.226 4.333 1.967 0 3.53-2.506 2.551-4.09-.657-1.064-2.818-1.203-3.777-.243M4.5 214.195c-2.798 1.586-3.467 2.832-3.485 6.482-.017 3.577 2.19 5.759 8.87 8.771 4.402 1.985 6.375 5.696 4.187 7.875-.667.665-3.745 1.13-7.074 1.068-4.008-.074-6.053.309-6.393 1.197-.611 1.59 7.004 2.967 10.546 1.907 5.142-1.539 6.849-3.374 6.849-7.363 0-4.334-1.845-6.478-8.285-9.632-5.118-2.506-6.608-4.719-4.715-7 1.025-1.236 2.625-1.581 6.182-1.334 4.419.308 6.77-.88 5.082-2.568-1.029-1.03-9.668-.592-11.764.597m118.433-.945c-.037.137-.15 6.438-.25 14-.166 12.499-.024 13.75 1.567 13.75 1.5 0 1.75-1 1.75-7 0-3.85.359-7 .797-7 1.052 0 7.304 6.646 10.114 10.75 1.224 1.787 3.095 3.25 4.157 3.25 1.063 0 1.932-.256 1.932-.57 0-.974-5.684-8.761-8.995-12.323l-3.154-3.393 5.075-5.139c2.791-2.826 5.074-5.461 5.074-5.856 0-2.27-3.796.066-8.99 5.531l-5.94 6.25-.035-6.25c-.027-4.873-.365-6.25-1.535-6.25-.825 0-1.53.113-1.567.25M98 218c0 2.333-.444 3-2 3-1.111 0-2 .667-2 1.5s.889 1.5 2 1.5c1.819 0 2 .667 2 7.378 0 8.38 1.01 9.941 6.108 9.44 4.225-.415 5.148-2.818 1.082-2.818-3.561 0-4.19-1.288-4.19-8.582 0-5.353.036-5.418 3-5.418 2 0 3-.5 3-1.5 0-1.012-1.013-1.5-3.113-1.5-2.891 0-3.082-.215-2.674-3 .352-2.399.075-3-1.386-3-1.363 0-1.827.761-1.827 3m60.35 0c-.33 1.65-1.219 3-1.975 3s-1.375.675-1.375 1.5.675 1.5 1.5 1.5c1.174 0 1.5 1.364 1.5 6.277 0 7.905 1.723 10.723 6.557 10.723 4.245 0 4.834-2.707.693-3.184-2.663-.306-2.759-.53-3.046-7.066l-.295-6.75h3.045c2.041 0 3.046-.495 3.046-1.5 0-1-1-1.5-3-1.5-2.667 0-3-.333-3-3 0-2.022-.497-3-1.525-3-.894 0-1.773 1.24-2.125 3m-133.97 2.807c-.614.405-1.064 4.752-1.08 10.443-.024 8.777.155 9.75 1.796 9.75 1.593 0 1.86-1.039 2.114-8.229.282-8.008.365-8.255 3.093-9.211 4.935-1.731 6.157.019 6.487 9.295.227 6.34.614 8.145 1.75 8.145 1.149 0 1.46-1.584 1.46-7.429C40 225.504 41.272 223 45.371 223c3.767 0 4.629 1.9 4.629 10.2 0 7.133.171 7.8 2 7.8 1.843 0 2-.667 2-8.5 0-7.299-.296-8.796-2.098-10.598-1.677-1.677-2.831-1.97-5.75-1.459-4.602.804-6.707.802-11.416-.013-2.41-.418-4.298-.209-5.25.581-1.062.882-1.852.93-2.77.169-.705-.586-1.757-.754-2.336-.373m35.87-.145c-.687.278-1.25 1.087-1.25 1.798 0 .942 1.223 1.156 4.492.788 4.858-.548 7.508.774 7.508 3.744 0 1.341-1.096 1.871-4.711 2.279-6.945.783-10.267 5.642-6.954 10.173.811 1.109 2.48 1.782 4.25 1.712 1.603-.062 4.827-.181 7.165-.263l4.25-.149v-8.372c0-10.414-1.424-12.415-8.75-12.293-2.612.043-5.312.306-6 .583m21.203.107c-.615.428-1.028 4.763-1 10.478.041 8.598.253 9.748 1.797 9.75 1.507.003 1.75-1.01 1.75-7.297 0-8.239.858-9.7 5.7-9.7 2.633 0 3.3-.404 3.3-2 0-1.537-.667-2-2.878-2-1.582 0-3.441.68-4.131 1.511-1.111 1.339-1.382 1.341-2.373.019-.615-.821-1.589-1.164-2.165-.761m66.797-.107c-.882.356-1.25 3.424-1.25 10.421 0 9.25.134 9.917 2 9.917 1.873 0 2-.667 2-10.5 0-5.775-.338-10.464-.75-10.421-.412.043-1.312.306-2 .583m28.991.663c-5.312 2.951-7.154 10.825-3.748 16.024 2.154 3.287 8.743 5.32 12.175 3.756 3.688-1.68 2.727-3.105-2.095-3.105-3.592 0-4.819-.497-6.5-2.635-2.65-3.368-2.627-6.39.072-9.823 1.733-2.202 2.786-2.652 5.472-2.339 3.089.361 5.145-1.107 3.647-2.605-1.034-1.035-6.668-.581-9.023.727m42.509-.245c-2.565 1.494-4.75 6.3-4.75 10.447 0 6.782 8.526 12.125 15.26 9.564 4.416-1.679 3.188-3.091-2.687-3.091-4.673 0-5.716-.367-7.5-2.635-1.14-1.449-2.073-3.024-2.073-3.5s3.375-.865 7.5-.865h7.5v-2.865c0-4.56-3.457-8.141-7.823-8.105-2.022.017-4.465.489-5.427 1.05m19.5-.347c-.887.308-1.25 3.315-1.25 10.35 0 9.25.134 9.917 2 9.917 1.833 0 2-.667 2-7.965 0-6.851.27-8.109 1.934-9 6.173-3.303 9.627.9 8.603 10.467-.658 6.137-.581 6.498 1.383 6.498 1.952 0 2.08-.553 2.08-8.943 0-8.108-.208-9.089-2.223-10.5-2.659-1.863-5.746-1.984-9.302-.364-1.792.817-2.832.864-3.297.15-.373-.574-1.24-.848-1.928-.61M220.2 224.2c-.66.66-1.2 2.01-1.2 3 0 1.493.852 1.8 5 1.8 5.117 0 5.818-.705 4.393-4.418-.726-1.893-6.417-2.158-8.193-.382m-155.95 7.831c-3.202 1.287-3.095 5.719.157 6.535 3.668.921 6.593-1.12 6.593-4.601 0-2.427-.408-2.953-2.25-2.902-1.237.035-3.263.471-4.5.968" fill="#1976D2" fill-rule="evenodd"/><path fill-opacity=".373" d="M177.17 16.2c-1.407 2.222-1.752 3.713-1.129 4.876.737 1.377.066 1.993-3.764 3.456-8.815 3.367-17.032 13.317-18.806 22.773L152.777 51h-17.846l.785 5.25c1.021 6.833.993 131.34-.031 139.5l-.784 6.25h10.956c9.899 0 10.922-.169 10.609-1.75-.191-.963-.594-18.062-.897-38l-.55-36.25h3.023c5.805 0 10.353 3.024 21.498 14.295 11.017 11.143 29.227 34.469 40.96 52.469l6 9.205 12.357.015c14.147.018 13.673.647 6.978-9.254-21.881-32.359-52.859-69.087-63.628-75.439-2.361-1.392-4.161-2.854-4-3.247.161-.393 3.668-3.544 7.793-7.001 9.75-8.171 46.532-45.369 50.812-51.386L240.124 51h-24.868l-.611-3.819c-.756-4.727-4.877-12.692-8.631-16.681-1.553-1.65-2.979-3.862-3.169-4.916C202.153 21.742 188.115 13 182.638 13c-2.783 0-3.829.612-5.468 3.2m.913.684c-2.051 2.88-2.051 2.887-.068 5.408 1.092 1.388 1.985 2.957 1.985 3.487 0 .53 2.201 1.255 4.89 1.612 2.69.357 6.105 1.604 7.589 2.771l2.697 2.122-.338-2.358c-.442-3.081-6.23-6.926-10.427-6.926-1.811 0-3.545-.408-3.853-.907-.309-.498.34-.671 1.441-.383 1.1.288 2.001.032 2.001-.567 0-.6 2.363.31 5.25 2.022 2.887 1.712 6.375 3.439 7.75 3.838 1.375.398 2.373 1.277 2.219 1.954-.155.677.295 1.041 1 .81 2.119-.697 2.195-5.676.098-6.441-.999-.365-3.359-1.994-5.244-3.62-7.22-6.227-13.789-7.319-16.99-2.822M179 28.64c0 .352.787 1.215 1.748 1.918.962.703 1.388 1.64.946 2.081-.441.442-1.179.194-1.639-.55-.632-1.023-1.033-.771-1.642 1.029-.879 2.6-.878 2.649.056 8.185 1.051 6.228 5.788 6.591 12.031.922 1.1-.999 2.607-2.874 3.349-4.166 1.189-2.07 1.159-2.276-.25-1.735-1.248.478-1.599-.05-1.599-2.406 0-2.501-.596-3.269-3.468-4.469-3.517-1.469-9.532-1.98-9.532-.809m6 3.253c0 1.174 2.924 2.272 4.107 1.541.509-.315.667-.991.35-1.503-.735-1.19-4.457-1.221-4.457-.038m-4.019 6.63c-1.057 1.273-.995 1.42.378.893.902-.347 1.641-1.032 1.641-1.523 0-1.286-.579-1.105-2.019.63m10.686 4.144c-.367.366-.667 1.131-.667 1.7 0 .626.466.567 1.183-.15.651-.651.951-1.416.667-1.7-.284-.284-.817-.217-1.183.15M187.732 47c-.942 1.1-2.59 2-3.663 2-2.499 0-3.558 1.705-2.13 3.427.832 1.002.766 1.472-.261 1.866-1.34.515-5.678 8.686-5.678 10.696 0 2.049 2.142.9 6.267-3.365 2.328-2.406 5.186-4.668 6.351-5.025 1.165-.358 2.922-1.539 3.905-2.625.983-1.085 2.267-1.974 2.854-1.974.588 0 .004.745-1.296 1.656l-2.364 1.655 3.684 1.89c2.026 1.04 4.491 3.218 5.478 4.841.987 1.623 2.093 2.652 2.458 2.288.365-.365.663.13.663 1.099 0 3.382-6.242 10.451-14.393 16.3-2.978 2.137-3.312 2.168-8.043.742-3.929-1.184-5.099-1.23-5.735-.229-.564.888-.803.712-.814-.6-.011-1.418-.549-1.731-2.265-1.322-6.377 1.521-11.677 1.789-13.721.695-1.21-.647-2.431-.947-2.712-.665-.282.282-.757 7.733-1.055 16.559-.49 14.496-.378 16.109 1.162 16.7.937.36 2.688.205 3.891-.343 4.077-1.857 14.151-11.049 22.185-20.242 5.432-6.216 8.891-9.336 10.774-9.719 3.226-.657 5.543-3.625 9.717-12.448 4.39-9.279 4.103-13.148-1.42-19.137l-4.408-4.779-4.777 3.029c-6.619 4.198-9.253 4.102-5.33-.193 1.619-1.772 2.944-3.572 2.944-4 0-1.176-.397-.962-2.268 1.223m2.734 1.036c-3.382 3.529-2.168 3.916 1.95.621 1.632-1.306 2.47-2.609 1.903-2.96-.557-.344-2.291.708-3.853 2.339M179 49c0 .55-.338.908-.75.796-.412-.112-3.096.126-5.964.53-3.689.519-5.664 1.375-6.75 2.926-2.013 2.874-1.941 3.485.506 4.261 1.488.473 2.606-.067 4.114-1.985 2.778-3.531 3.592-2.459.899 1.184-1.167 1.578-2.219 4.2-2.338 5.828-.194 2.645.119 2.993 2.941 3.267 2.799.271 3.234-.038 3.822-2.717.366-1.663 1.705-4.558 2.978-6.433 1.395-2.056 1.999-3.918 1.52-4.692-.436-.706-.561-1.887-.278-2.624.282-.738.241-1.341-.093-1.341-.334 0-.607.45-.607 1m-139.5.978C23.894 53.416 13.798 60.789 8.141 72.88c-2.29 4.893-2.63 6.913-2.63 15.62 0 8.756.333 10.713 2.683 15.736 5.238 11.199 14.837 18.319 40.551 30.078 17.658 8.075 27.11 14.243 31.132 20.313 5.038 7.608 5.287 16.234.674 23.387-7.778 12.057-38.12 15.548-65.704 7.559l-7.882-2.283-.587 2.605c-.323 1.433-1.24 5.242-2.038 8.466-.799 3.223-1.223 6.09-.942 6.37 1.237 1.237 13.149 3.337 25.184 4.441 30.098 2.758 54.871-3.718 65.009-16.995 8.23-10.778 9.814-29.305 3.634-42.509-5.839-12.479-16.446-20.428-43.725-32.767-22.141-10.016-27.157-13.442-30.143-20.589-3.113-7.451-.551-17.975 5.37-22.053 6.154-4.238 9.125-4.761 26.773-4.71 15.871.047 22.305.836 32.596 3.998 1.317.404 1.806-1.016 2.803-8.142.664-4.747.994-8.845.734-9.106-2.354-2.353-43.641-4.192-52.133-2.321M161.5 58c-.34.55-.254 1.006.191 1.014.445.007 1.934.266 3.309.574 2.413.541 2.432.506.559-1.014-2.255-1.828-3.201-1.962-4.059-.574m28.5.427c0 1.393-.343 1.461-2.25.444-2.05-1.092-2.127-1.049-.859.488 1.231 1.492 1.173 1.617-.5 1.082-1.809-.578-1.807-.536.05.977 2.306 1.88 3.655 2.039 3.309.391-.137-.654.527-1.36 1.477-1.568 2.332-.511 6.673 4.007 7.415 7.717.738 3.694 2.358 3.006 2.358-1.001 0-3.571-4.372-8.621-8.25-9.53-2.146-.502-2.75-.283-2.75 1m-32.191 4.323c-4.562 4.892-7.423 12.236-5.51 14.149.605.605 2.199 1.101 3.541 1.101s3 .767 3.686 1.704c1.035 1.416 1.899 1.543 5.099.75 4.463-1.105 5.503-3.608 2.165-5.215-1.259-.607-1.727-1.134-1.04-1.171 3.618-.196-1.645-4.728-7.229-6.224-2.689-.72-2.598-.761.82-.375 5.978.677 9.681-2.546 6.223-5.416-1.113-.924-1.956-.915-3.75.041-2.104 1.122-2.19 1.083-.942-.43 2.296-2.783-.319-1.856-3.063 1.086m25.191.133c0 .486 1.012 1.155 2.25 1.487 3.621.97 4.388.671 2.309-.902-2.161-1.634-4.559-1.942-4.559-.585m6.385 2.012c-2.456 2.235-2.908 3.206-2.137 4.584.817 1.459.505 1.403-1.885-.336-2.441-1.776-4.116-2.051-11.363-1.863-9.705.251-11.277 1.897-4.75 4.97 3.726 1.754 5.269 3.27 2.086 2.049-1.182-.454-1.436-.269-.877.635 1.096 1.774 8.524 5.018 11.541 5.041 2.486.02 13.808-6.168 15.26-8.339 1.018-1.522-.043-5.723-1.993-7.886-2.029-2.252-2.185-2.222-5.882 1.145M181 65c0 .55 1.012.993 2.25.985 1.819-.013 1.963-.201.75-.985-1.939-1.253-3-1.253-3 0m11.358 149.75c.341 2.063.625 8.85.631 15.083.008 8.146.337 11.225 1.17 10.947.772-.257 1.085-2.941.937-8.014-.247-8.475.652-9.766 6.803-9.766 4.049 0 5.101 2.254 5.101 10.934 0 5.614.308 7.066 1.5 7.066 1.199 0 1.5-1.493 1.5-7.435 0-4.089-.423-8.547-.94-9.907-1.258-3.31-5.979-4.344-10.205-2.236-1.739.868-3.318 1.578-3.509 1.578-.19 0-.346-2.7-.346-6 0-4.881-.304-6-1.631-6-1.328 0-1.516.696-1.011 3.75m-45.022-1.183c-.834 2.172 1.282 4.215 2.797 2.7 1.28-1.28.487-4.267-1.133-4.267-.585 0-1.333.705-1.664 1.567m-142.021.416c-1.201.497-2.664 1.8-3.25 2.895-2.522 4.712-.71 7.534 7.777 12.11 3.518 1.897 4.734 3.169 4.968 5.195.417 3.608-2.663 5.182-8.956 4.577-3.644-.35-4.854-.129-4.854.887C1 240.641 2.672 241 7.311 241 14.474 241 18 238.821 18 234.395c0-4.182-1.776-6.253-8.1-9.445-5.363-2.708-5.99-3.338-5.712-5.746.294-2.552.639-2.721 6.128-3.006 3.968-.206 5.691-.683 5.422-1.5-.484-1.472-7.44-1.95-10.423-.715M123 227.5c0 11.333.241 13.5 1.5 13.5 1.192 0 1.5-1.453 1.5-7.073 0-6.193.218-7.032 1.746-6.737.96.185 3.944 3.255 6.63 6.823 2.687 3.568 5.726 6.631 6.754 6.807 1.029.175 1.87.029 1.87-.326 0-.927-8.375-11.652-10.794-13.822-2.027-1.82-2.012-1.853 3.129-6.877 3.614-3.532 4.74-5.202 3.749-5.56-.853-.309-3.438 1.741-6.5 5.154-2.796 3.117-5.422 5.654-5.834 5.639-.412-.016-.75-2.503-.75-5.528 0-4.222-.348-5.5-1.5-5.5-1.259 0-1.5 2.167-1.5 13.5m-24.473-11.25c-.225.688-.575 2.15-.778 3.25-.202 1.1-.861 1.902-1.464 1.782-.602-.12-1.349.442-1.659 1.25-.378.984.085 1.468 1.405 1.468 1.769 0 1.969.703 1.969 6.929 0 7.858 1.334 10.071 6.071 10.071 3.778 0 3.745-1.254-.071-2.694-2.915-1.1-3-1.319-3-7.719V224h3c2 0 3-.5 3-1.5s-1-1.5-3-1.5c-2.667 0-3-.333-3-3 0-2.97-1.682-4.16-2.473-1.75m60.286 2c-.236 2.452-.743 3.178-2.063 2.956-2.177-.365-2.367 2.519-.196 2.971 1.18.245 1.632 1.95 1.877 7.072.177 3.712.883 7.425 1.568 8.25 1.619 1.951 8.001 2.026 8.001.095 0-.833-.714-1.236-1.75-.987-3.354.803-4.631-1.223-5.065-8.039l-.418-6.568h3.117c2.166 0 3.116-.479 3.116-1.572 0-1.125-.78-1.48-2.75-1.25-2.544.298-2.731.078-2.496-2.928.178-2.28-.176-3.25-1.187-3.25-.894 0-1.559 1.233-1.754 3.25M29.52 221.566c-1.923 1.003-3.105 1.178-3.333.494-.195-.583-1.044-1.06-1.887-1.06-1.102 0-1.364.633-.93 2.25.331 1.238.609 5.738.616 10 .011 6.216.311 7.75 1.514 7.75 1.214 0 1.5-1.599 1.5-8.393 0-8.916.387-9.607 5.382-9.607 3.755 0 4.618 1.906 4.618 10.2 0 6.267.295 7.8 1.5 7.8s1.5-1.533 1.5-7.8c0-8.78.797-10.2 5.725-10.2 4.38 0 5.679 3.198 4.776 11.75-.561 5.307-.422 6.25.919 6.25 1.321 0 1.58-1.454 1.58-8.878 0-5.902-.419-9.212-1.25-9.877-2.557-2.046-5.79-2.371-8.774-.883-2.623 1.308-3.362 1.318-5.743.076-3.433-1.791-4.052-1.781-7.713.128m32.98-.897c-4.54 1.192-3.677 2.331 1.765 2.331 4.66 0 5.856.358 6.746 2.021 1.382 2.582.503 3.979-2.505 3.979-3.052 0-7.748 1.784-8.72 3.313-1.163 1.828-.924 6.149.414 7.487 1.576 1.576 8.037 1.542 9.725-.05 1.06-1 1.417-1 1.783 0 .252.688.984 1.25 1.625 1.25 1.608 0 .937-17.037-.739-18.784-1.4-1.458-7.103-2.332-10.094-1.547m23.991.714c-1.42 1.038-2.33 1.11-3.646.288-.965-.602-1.887-.887-2.05-.633-.162.254-.152 4.849.024 10.212.249 7.644.627 9.75 1.75 9.75 1.112 0 1.431-1.639 1.431-7.345 0-8.098 1.918-11.433 5.966-10.374 2.434.636 3.864-1.141 1.912-2.377-1.937-1.227-3.208-1.114-5.387.479m92.793-.699c-1.219.245-3.356 1.801-4.75 3.458-5.949 7.069-1.368 16.858 7.889 16.858 3.087 0 4.577-.423 4.577-1.299 0-.892-1.079-1.173-3.443-.897-4.667.544-8.557-3.21-8.557-8.259 0-4.681 2.878-7.545 7.583-7.545 2.42 0 3.45-.406 3.172-1.25-.447-1.356-2.967-1.771-6.471-1.066m39.827 1.876c-5.223 4.395-5.093 13.238.249 16.98 2.751 1.926 12.64 2.004 12.64.099 0-.91-.822-1.204-2.482-.887-3.553.679-7.149-.44-9.49-2.953-3.692-3.962-2.714-4.799 5.603-4.799h7.631l-.601-3.75c-1.138-7.108-7.896-9.447-13.55-4.69m25.409-1.035c-1.909 1.022-3.107 1.214-3.333.535-.195-.583-1.047-1.06-1.895-1.06-1.194 0-1.401.706-.917 3.125.344 1.719.625 6.219.625 10 0 5.444.312 6.875 1.5 6.875 1.214 0 1.5-1.599 1.5-8.393 0-9.111.312-9.607 6.047-9.607 3.886 0 4.953 2.355 4.953 10.934 0 5.81.284 7.066 1.599 7.066 1.373 0 1.55-1.268 1.25-8.951-.192-4.923-.813-9.415-1.38-9.981-1.92-1.918-6.875-2.188-9.949-.543m-97.11 9.473c.074 8.179.363 9.998 1.59 10.001 1.234.002 1.5-1.774 1.5-9.996 0-8.472-.243-10-1.59-10.001-1.352-.002-1.576 1.487-1.5 9.996m73.045-6.543c-3.73 3.729-3.094 4.545 3.545 4.545 6.635 0 7.686-1.314 4-5-2.639-2.639-4.568-2.523-7.545.455m-157.532 8.432c-1.973 1.619-2.219 2.324-1.322 3.8 1.334 2.197 5.529 2.849 8.409 1.307 1.5-.802 2.02-1.904 1.8-3.811-.252-2.181-.885-2.739-3.387-2.983-1.948-.191-3.965.428-5.5 1.687" fill="#1976D2" fill-rule="evenodd"/></svg>