<svg xmlns="http://www.w3.org/2000/svg" width="256" height="256"><path fill-opacity=".016" d="M0 128.004v128.004l128.25-.254 128.25-.254.254-127.75L257.008 0H0v128.004m.485.496c0 70.4.119 99.053.265 63.672.146-35.38.146-92.98 0-128C.604 29.153.485 58.1.485 128.5" fill="#1976D2" fill-rule="evenodd"/><path fill-opacity=".414" d="M95.414 4.171C100.461 10.067 103 17.493 103 26.356c0 8.619-1.855 15.414-7 25.636-3.5 6.956-7.524 13.16-31.461 48.508-10.357 15.293-18.692 31.822-21.685 43-3.23 12.063-3.258 36.806-.055 48 2.93 10.242 8.954 22.44 14.669 29.703l4.487 5.703 5.273-1.537c9.037-2.633 19.375-8.154 25.144-13.426 18.5-16.908 13.626-39.9-11.372-53.645-12.364-6.799-18.128-14.318-18.213-23.759-.113-12.503 5.807-22.09 24.604-39.846 19.229-18.164 27.262-30.704 31.771-49.596 3.636-15.235 1.011-24.822-9.939-36.302-4.235-4.44-6.73-6.165-10.565-7.304-7.084-2.104-7.233-1.981-3.244 2.68m26.099 14.579c2.648 6.372 3.735 12.162 4.177 22.25.647 14.763-1.096 23.347-7.309 36-4.178 8.51-5.851 10.665-16.048 20.685-13.217 12.986-16.891 19.177-16.119 27.162 1.023 10.592 6.264 16.732 20.307 23.786 17.568 8.825 21.083 13.779 20.288 28.593-.361 6.73-1.065 9.58-3.771 15.274-4.216 8.869-15.329 20.05-26.573 26.736-8.164 4.854-23.967 11.775-27.492 12.041-2.727.205-2.491.769 1.795 4.284 6.535 5.36 13.177 9.544 20.557 12.95 6.404 2.955 17.605 6.489 20.569 6.489 1.639 0 1.322-10.131-.387-12.388-1.931-2.551-.219-5.854 2.811-5.423 2.435.347 3.58 4.313 1.767 6.126-.597.597-1.085 3.695-1.085 6.885v5.8h8v-19.608l-3.434-3.328c-2.241-2.172-4.003-3.11-5.073-2.7-.901.346-2.475.181-3.498-.367-4.427-2.369-3.072-8.997 1.84-8.997 3.461 0 5.165 1.648 5.165 4.997 0 1.712 1.363 3.928 4 6.503l4 3.906V256h8v-18.608L130.5 234c-3.394-3.29-3.5-3.622-3.5-10.974 0-6.344-.326-7.861-2-9.294-3.671-3.143-1.513-8.732 3.371-8.732 4.347 0 6.291 5.195 3.129 8.357-1.079 1.08-1.5 3.709-1.5 9.375 0 7.688.083 7.957 3.5 11.268l3.5 3.392v9.304c0 5.117.413 9.304.918 9.304 3.673 0 4.082-1.138 4.082-11.366 0-9.07-.213-10.286-2-11.402-1.85-1.155-2-2.332-2-15.673 0-13.482-.129-14.465-1.974-15.051-3.314-1.051-6.026-5.427-6.026-9.72 0-3.06.682-4.623 3.048-6.99 2.702-2.701 3.547-2.991 7.446-2.552 6.27.707 11.627 3.823 21.177 12.32 4.595 4.089 8.882 7.434 9.526 7.434.645 0 3.226-1 5.737-2.223 8.863-4.315 19.507-2.379 23.43 4.263 2.609 4.415 2.105 8.388-1.441 11.371-3.891 3.275-6.611 3.945-13.63 3.363-6.021-.499-5.743-.28-16.025-12.603-1.777-2.131-5.041-5.128-7.252-6.66l-4.021-2.786-4.497 2.386-4.498 2.386v14.261c0 13.024-.174 14.41-2 15.974-1.756 1.503-2 2.95-2 11.852v10.139l2.5-.478c2.39-.457 2.5-.793 2.5-7.665 0-6.902.139-7.323 3.5-10.58 3.402-3.297 3.5-3.608 3.5-11.074 0-5.72-.396-8.01-1.551-8.968-2.556-2.122-1.474-7.239 1.771-8.372 5.262-1.839 9.001 4.532 4.78 8.146-1.674 1.433-2 2.95-2 9.294 0 7.352-.106 7.684-3.5 10.974-3.271 3.17-3.5 3.805-3.5 9.696 0 6.83.571 7.368 5.453 5.143 2.406-1.096 2.547-1.584 2.547-8.797 0-7.591.024-7.659 4-11.542 2.767-2.702 4-4.761 4-6.68 0-1.855.828-3.316 2.5-4.412 2.316-1.517 2.684-1.517 5 0 2.679 1.755 3.316 5.376 1.3 7.392-.66.66-2.597 1.2-4.304 1.2-2.198 0-4.036.962-6.3 3.298-2.949 3.042-3.196 3.816-3.196 10 0 3.686.21 6.702.466 6.702s2.056-.758 4-1.685c2.809-1.34 3.534-2.263 3.534-4.5 0-1.548-.48-2.815-1.066-2.815-.587 0-.924-1.238-.75-2.75.246-2.145.842-2.75 2.707-2.75 3.579 0 4.982 2.878 2.656 5.448-2.544 2.811-1.237 3.729 2.172 1.523 15.221-9.848 28.741-28.991 34.279-48.538 2.679-9.457 3.698-27.117 2.095-36.319-1.397-8.026-5.497-21.42-7.313-23.893-1.098-1.495-1.304-.924-1.447 4.018-.357 12.316-9.149 26.198-17.597 27.783-6.718 1.26-13.736-4.681-13.736-11.628 0-3.096 1.295-5.723 6.712-13.615 8.565-12.477 10.397-17.765 11.014-31.779.888-20.191-4.888-34.971-15.852-40.564L172 63.959v3.57c0 4.177-2.324 9.252-5.358 11.699-6.203 5.003-19.448-1.017-26.535-12.062-3.674-5.724-6.25-12.903-9.748-27.166-2.458-10.022-7.482-23-8.903-23-.369 0-.343.788.057 1.75M137.5 90.681c-5.813 1.306-9.136 2.899-12.631 6.056-2.128 1.923-3.869 4.132-3.869 4.911 0 2.617 2.944 2.577 6.105-.083 5.161-4.343 8.836-5.765 14.895-5.765 6.076 0 9.733 1.421 14.948 5.81 2.999 2.523 3.288 2.581 4.87.982 1.578-1.596 1.427-1.94-2.45-5.573-5.693-5.333-14.707-7.946-21.868-6.338m-3 12.18c-1.65 1.019-3.87 2.831-4.933 4.027-1.82 2.047-1.834 2.274-.231 3.876 1.399 1.399 2.01 1.48 3.433.455 8.193-5.904 10.593-6.234 16.22-2.227 4.57 3.255 8.017 1.995 5.889-2.153-2.767-5.391-14.411-7.664-20.378-3.978m2.979 10.397c-6.131 6.131-7.479 11.517-7.479 29.889v14.783l2.853 3.285c4.298 4.948 5.147 7.128 5.147 13.219V180h3.277c1.803 0 4.278.701 5.5 1.557l2.223 1.556v-71l-2.223-1.556c-3.334-2.336-4.641-1.956-9.298 2.701m.721-.058c-.66.66-1.2 2.37-1.2 3.8 0 1.43.54 3.14 1.2 3.8 2.828 2.828 8.8.249 8.8-3.8 0-4.049-5.972-6.628-8.8-3.8m51.45 54.849c-10.055 1.687-21.975 9.508-23.18 15.21-.377 1.783-1.552 4.186-2.611 5.341-1.659 1.809-1.726 2.266-.481 3.298.983.817 1.651.864 2.092.151.356-.577 2.881-1.049 5.611-1.049 3.798 0 6.831-.939 12.919-4 4.781-2.404 9.361-4 11.478-4 2.464 0 3.522-.451 3.522-1.5 0-2.407-7.867-1.902-13.31.854-4.618 2.337-5.69 2.368-5.69.163 0-1.611 7.263-5.517 10.261-5.517 3.938 0 8.739-1.168 8.739-2.125 0-1.925-10.536-.839-15.849 1.635-6.252 2.91-6.151 2.891-6.151 1.127 0-1.515 10.611-6.637 13.75-6.637 4.161 0 8.25-1.301 8.25-2.625 0-1.511-1.893-1.577-9.35-.326m-54.239 23.449c-.715 2.849.036 5.502 1.558 5.502.567 0 1.031-1.8 1.031-4 0-4.445-1.615-5.382-2.589-1.502M149 194c0 2.2.247 4 .55 4 .302 0 1.967-.733 3.7-1.629l3.151-1.63-2.756-2.37C149.829 189.089 149 189.379 149 194m-23.611 14.43c-.996 2.595.399 4.739 2.857 4.39 1.652-.235 2.254-.987 2.254-2.82 0-1.833-.602-2.585-2.254-2.82-1.353-.192-2.496.308-2.857 1.25m31 2c-.996 2.595.399 4.739 2.857 4.39 1.652-.235 2.254-.987 2.254-2.82 0-1.833-.602-2.585-2.254-2.82-1.353-.192-2.496.308-2.857 1.25m15.861 10.232c-1.718.694-1.571 3.826.25 5.338 1.846 1.532 4.5-.246 4.5-3.015 0-1.368-2.312-3.384-3.332-2.906-.092.043-.73.306-1.418.583m-61.32 2.922c-1.656 1.995-.064 4.916 2.679 4.916 3.472 0 2.745-6.4-.737-6.485-.345-.008-1.219.698-1.942 1.569m60.406 11.983c-.331.862-.111 2.058.489 2.658 1.444 1.444 4.271-.811 3.509-2.798-.732-1.906-3.247-1.818-3.998.14m-59 4c-.834 2.172 1.282 4.215 2.797 2.7 1.28-1.28.487-4.267-1.133-4.267-.585 0-1.333.705-1.664 1.567" fill="#1976D2" fill-rule="evenodd"/><path fill-opacity=".266" d="M96.445 4.517c6.747 8.845 8.913 20.063 6.148 31.83-2.755 11.722-7.904 20.691-33.521 58.391C55.16 115.211 46.32 131.793 43.608 142.5c-2.407 9.504-3.875 24.38-3.158 32 1.605 17.062 7.626 33.603 16.678 45.82 4.149 5.6 4.445 5.795 7.842 5.166 5.801-1.075 17.507-6.345 23.283-10.481 12.854-9.205 17.618-22.163 13.08-35.577-2.237-6.611-12.351-16.603-22.169-21.901-12.269-6.62-17.844-15.086-16.887-25.641 1.043-11.503 9.051-23.783 23.653-36.272 27.506-23.524 40.977-57.316 30.513-76.541-3.865-7.101-12.638-15.755-17.278-17.044-5.453-1.515-5.642-1.343-2.72 2.488m26.936 17.67c.28.929 1.073 3.629 1.763 6 .698 2.403 1.251 9.628 1.247 16.313-.008 13.661-1.606 21.016-6.91 31.802-4.469 9.087-8.986 14.828-18.563 23.588-10.296 9.418-13.896 15.512-13.909 23.544-.018 11.557 4.818 17.45 20.971 25.556 5.427 2.723 11.487 6.62 13.467 8.659 9.431 9.711 8.173 28.025-2.944 42.851-8.125 10.836-22.836 21.203-39.003 27.486-4.4 1.71-8.877 3.461-9.95 3.89-1.706.684-1.208 1.365 4 5.462 3.273 2.575 9.353 6.456 13.513 8.625 7.397 3.857 23.698 9.277 25.187 8.374 1.092-.662.921-10.337-.183-10.337-1.59 0-2.299-4.016-.987-5.596 1.553-1.872 4.87-1.455 6.276.787.802 1.281.645 2.15-.648 3.579-1.136 1.256-1.708 3.579-1.708 6.942 0 4.397.293 5.133 2.25 5.658 5.651 1.514 5.75 1.365 5.75-8.674v-9.304l-3.554-3.445c-2.384-2.31-4.318-3.345-5.874-3.141-2.853.374-5.572-2.175-5.572-5.222 0-2.595 2.852-5.584 5.329-5.584 2.455 0 5.935 3.883 5.38 6.004-.311 1.191.864 3.126 3.408 5.61l3.883 3.792V256h8v-8.804c0-8.749-.022-8.825-3.5-12.196-3.43-3.325-3.5-3.553-3.5-11.456 0-7.058-.257-8.223-2.06-9.349-2.952-1.844-2.317-7.215 1.051-8.884 2.002-.994 2.884-.976 4.5.09 2.525 1.666 3.162 6.812 1.06 8.557-1.16.962-1.551 3.262-1.551 9.114 0 7.769.026 7.846 3.5 10.496l3.5 2.669v9.382c0 9.34.011 9.381 2.5 9.381 2.499 0 2.5-.003 2.5-9.955 0-9.284-.168-10.122-2.5-12.454-2.418-2.418-2.5-2.941-2.5-15.885 0-13.237-.027-13.397-2.452-14.502-3.533-1.61-5.873-6.658-5.07-10.937 1.007-5.368 4.517-8.267 10.01-8.267 6.275 0 12.255 3.298 22.512 12.414 4.675 4.155 8.824 7.562 9.219 7.57.396.009 2.619-.974 4.94-2.184 5.707-2.974 14.261-3.478 18.77-1.105 4.392 2.312 7.321 6.327 7.461 10.228.06 1.69.252 3.073.425 3.075 1.101.008 7.558-16.375 9.341-23.697 4.07-16.72 2.402-38.877-4.013-53.301l-2.002-4.5-.07 4.275C205.859 148.57 194.982 164 186.174 164c-6.491 0-13.189-6.208-13.165-12.2.011-2.502 3.741-9.161 9.973-17.8 4.728-6.555 6.617-11.792 8.078-22.399 2.02-14.664-1.617-31.219-8.668-39.457-4.03-4.707-12.063-9.658-9.843-6.065.367.593.108 3.075-.575 5.514C170.477 76.938 165.218 82 161.162 82c-7.614 0-20.11-10.275-24.706-20.316-1.323-2.889-4.203-12.101-6.4-20.471-2.197-8.371-4.713-16.455-5.589-17.966-.877-1.511-1.366-1.988-1.086-1.06m8.054 69.703C126.576 94.097 120 99.663 120 101.568c0 .749.879 1.832 1.953 2.407 1.594.853 2.586.491 5.386-1.968 9.024-7.923 19.98-7.886 29.833.101 5.624 4.559 8.14-.979 2.578-5.674-7.708-6.507-19.742-8.438-28.315-4.544m4.065 9.991c-4.865 2.234-7.795 5.347-7.326 7.783.536 2.782 3.425 2.744 7.147-.095 4.501-3.434 9.512-3.422 13.617.032 5.093 4.286 9.396.555 4.939-4.281-4.902-5.317-11.57-6.565-18.377-3.439m1.62 10.999c-6.16 6.16-7.613 11.825-7.617 29.708l-.003 15.088 3.75 4.58c3.49 4.262 3.75 5.038 3.75 11.162V180l3.25.035c1.787.02 4.375.679 5.75 1.465s2.854 1.445 3.286 1.465c.433.019.658-15.977.5-35.546-.272-33.89-.378-35.649-2.227-37-3.26-2.383-6.315-1.663-10.439 2.461m1.995.752c-2.66 1.863-2.703 4.526-.111 6.872 1.674 1.515 2.425 1.621 4.563.647 2.08-.947 2.5-1.752 2.246-4.3-.388-3.89-3.562-5.415-6.698-3.219m45.482 55.361c-6.301 2.012-16.072 8.157-17.644 11.096-.524.979-.953 2.648-.953 3.71 0 1.062-.958 3.149-2.129 4.637-2.539 3.228-1.36 5.431 1.956 3.657 1.123-.601 4.112-1.093 6.643-1.093 3.442 0 6.501-1.007 12.15-4 4.553-2.412 8.906-4 10.965-4 2.809 0 3.415-.375 3.415-2.114 0-1.947-.364-2.059-4.644-1.417-2.554.383-6.594 1.644-8.978 2.802-2.384 1.159-4.614 1.826-4.956 1.484-2.191-2.191 7.073-6.702 13.828-6.733 4.163-.019 4.75-.284 4.75-2.137 0-1.989-.345-2.074-5.75-1.425-3.162.379-8.113 1.756-11 3.06-2.887 1.303-5.25 1.952-5.25 1.442 0-1.833 10.33-6.119 16.347-6.785 4.709-.52 6.205-1.082 6.463-2.427.284-1.477-.416-1.742-4.487-1.696-2.653.029-7.479.902-10.726 1.939m-48.93 21.674c-1.025 1.025-.79 5.139.333 5.833.595.368 1-.823 1-2.941 0-3.655-.18-4.045-1.333-2.892M150 193.345c0 2.01.364 3.655.809 3.655 1.146 0 4.791-2.766 4.189-3.179-.274-.188-1.51-1.195-2.748-2.237L150 189.69v3.655m3.82 6.937l-3.68 2.193-.32 14.353c-.301 13.482-.457 14.464-2.57 16.173-2.052 1.66-2.25 2.668-2.25 11.479 0 9.445.05 9.652 2.25 9.34 2.077-.295 2.272-.903 2.539-7.912.274-7.183.476-7.772 3.75-10.946 3.284-3.183 3.461-3.704 3.461-10.199 0-5.434-.443-7.443-2.149-9.751-2.044-2.764-2.067-3.033-.477-5.46 1.818-2.774 6.287-3.491 8.426-1.352 1.916 1.916 1.447 6.629-.8 8.032-1.731 1.081-2 2.332-2 9.312 0 7.903-.07 8.131-3.5 11.456-3.223 3.123-3.5 3.861-3.5 9.303 0 4.997.246 5.816 1.593 5.3.876-.336 2.676-.883 4-1.216 2.298-.576 2.407-.976 2.407-8.792v-8.189l3.948-3.855c2.525-2.466 4.057-4.936 4.25-6.852.392-3.891 2.81-5.432 6.499-4.143 5.491 1.92 3.48 11.003-2.269 10.25-1.556-.204-3.49.831-5.874 3.141-3.334 3.232-3.554 3.836-3.554 9.769v6.325l4-2.041c4.381-2.235 4.853-3.768 2.343-7.6-1.57-2.395-1.549-2.638.378-4.565 1.679-1.679 2.407-1.837 4.157-.9 2.201 1.178 2.868 4.486 1.122 5.565-.55.34-1 1.294-1 2.121 0 3.337 17.566-12.351 23.752-21.212l2.158-3.091-4.705 2.42c-8.31 4.274-17.669 1.808-23.101-6.087-2.922-4.246-13.604-14.695-14.935-14.607-.368.025-2.325 1.032-4.349 2.238m-27.862 8.268c-1.062 1.281-.997 1.84.378 3.214 1.541 1.541 1.785 1.543 3.301.028 1.817-1.818 1.207-4.792-.983-4.792-.775 0-1.988.698-2.696 1.55m31.292 1.112c-1.782.719-1.548 4.286.328 5.006.867.333 2.291-.108 3.164-.981 1.307-1.308 1.36-1.859.3-3.137-1.346-1.622-1.743-1.715-3.792-.888m14.113 12.835c-.346.901-.167 2.099.398 2.664 1.63 1.63 4.739.531 4.739-1.675 0-2.543-4.228-3.358-5.137-.989m-60.643 1.791c-.793 2.066.755 3.96 2.9 3.547 2.657-.512 2.461-4.252-.243-4.638-1.167-.166-2.363.324-2.657 1.091m61.354 10.666c-1.578.976-.569 3.046 1.485 3.046 1.52 0 2.003-2.535.643-3.375-.439-.271-1.396-.123-2.128.329m-59.884 5.796c.186.963 1 1.75 1.81 1.75s1.624-.787 1.81-1.75c.236-1.228-.304-1.75-1.81-1.75s-2.046.522-1.81 1.75" fill="#1976D2" fill-rule="evenodd"/><path fill-opacity=".527" d="M135.838 97.182c-2.014.536-5.46 2.515-7.659 4.396-2.198 1.882-4.543 3.422-5.21 3.422-.946 0-.943.326.013 1.478 1.737 2.093 4.225 1.426 8.419-2.257 4.218-3.703 7.003-4.592 14.621-4.667 4.874-.048 6.139.398 10.77 3.795 5.141 3.772 8.208 4.236 8.208 1.241 0-1.871-1.663-2.944-2.49-1.606-1.081 1.749-3.492 1.123-7.319-1.901-5.817-4.596-12.036-5.85-19.353-3.901m-.384 12.855c-2.147 1.706-4.507 2.8-5.388 2.498-.861-.297-.499.365.804 1.471l2.371 2.009 3.882-3.507c4.383-3.96 8.589-4.589 11.222-1.679 1.475 1.629 1.655 5.711 1.655 37.5 0 19.619-.199 35.671-.443 35.671-.243 0-2.049-.947-4.011-2.106-2.357-1.39-4.414-1.893-6.057-1.48-2.473.62-2.489.58-2.489-6.334 0-6.681-.159-7.142-4-11.58l-4-4.622-.203-12.689-.202-12.689L128 145c-.327 6.875-.686 11.713-.797 10.75-.112-.963-.765-1.757-1.453-1.765-.955-.012-.967-.196-.052-.777.752-.478-.448-1.353-3.228-2.353-2.434-.875-4.136-1.124-3.783-.553.389.63.008.795-.972.419-1.131-.434-1.447-.187-1.059.824.304.794.885 1.239 1.29.988 1.073-.663 7.226 5.962 6.351 6.837-.407.406-.174 1.088.518 1.515 1.887 1.167 2.685 5.673 2.685 15.169 0 7.882-.297 9.154-3.782 16.204-2.08 4.208-6.001 10.079-8.713 13.046-8.489 9.289-23.959 18.872-39.854 24.689l-7.348 2.689 6.104 4.589c9.023 6.783 15.569 10.257 25.761 13.671 12.312 4.125 12.332 4.122 12.332-1.883 0-2.718-.45-5.219-1-5.559-.55-.34-1-1.701-1-3.024 0-2.682 2.985-4.803 5.436-3.862 2.034.78 3.155 5.195 1.691 6.659-.62.62-1.127 3.461-1.127 6.314 0 4.998.109 5.202 3 5.626l3 .441v-9.64c0-9.256-.112-9.747-2.805-12.327-1.8-1.725-3.905-2.687-5.877-2.687-1.69 0-3.634-.676-4.321-1.503-1.829-2.204-1.52-6.641.569-8.169 4.086-2.988 9.434-.264 9.434 4.805 0 1.515 1.356 3.789 3.5 5.867l3.5 3.392V256h7v-9.313c0-9.042-.087-9.396-3-12.187-2.805-2.688-3-3.355-3-10.293 0-6.454-.325-7.805-2.5-10.389-1.375-1.634-2.5-3.326-2.5-3.76 0-1.785 4.283-6.058 6.073-6.058 2.518 0 5.927 3.457 5.927 6.01 0 1.105-.9 2.78-2 3.722-1.651 1.413-2 2.95-2 8.794 0 6.78.149 7.226 3.5 10.474l3.5 3.392v9.374c0 9.148.054 9.365 2.25 9.054 2.126-.302 2.266-.837 2.539-9.669.275-8.904.168-9.462-2.25-11.703-2.485-2.303-2.539-2.648-2.539-16.333 0-13.04-.133-14.022-1.974-14.607-6.268-1.989-7.992-11.277-3.107-16.742 2.564-2.869 3.507-3.256 7.75-3.183 6.539.112 11.358 2.797 22.241 12.391l9.123 8.043 4.734-2.363c6.35-3.17 10.554-3.854 15.713-2.555 4.804 1.21 9.753 5.761 11.196 10.296.914 2.874.941 2.849 3.74-3.387 1.55-3.455 2.878-7.682 2.951-9.395.073-1.712.808-3.661 1.633-4.331 1.045-.849 1.121-1.228.25-1.25-.687-.018-1.25-.932-1.25-2.032s-.562-2.007-1.25-2.015c-.849-.011-.769-.359.25-1.087 1.205-.861 1.057-.974-.751-.578-1.239.271-2.023.124-1.744-.328.279-.452.017-.985-.582-1.184-.599-.2-1.412-3.106-1.807-6.459-.423-3.583-1.419-6.795-2.417-7.793-1.599-1.598-1.699-1.585-1.699.23 0 1.627-.965 2.03-6.164 2.573-5.975.625-18.446 5.449-16.248 6.285.598.228 3.523-.719 6.5-2.105 6.892-3.209 15.912-3.593 15.912-.678 0 1.541-1.001 1.952-5.822 2.389-6.051.549-14.664 4.155-13.69 5.731.308.498 2.911-.19 5.786-1.528 2.974-1.385 7.087-2.438 9.546-2.443 3.909-.009 4.289.203 4 2.24-.27 1.9-1.098 2.336-5.32 2.801-2.75.303-7.8 1.991-11.221 3.75-3.931 2.021-7.688 3.199-10.203 3.199-2.19 0-5.115.516-6.499 1.147-1.953.89-2.868.856-4.081-.15-1.403-1.165-1.357-1.516.455-3.445 1.11-1.182 2.302-3.566 2.648-5.299.347-1.733 1.468-3.909 2.492-4.836 1.024-.926 1.652-2.023 1.396-2.437-.256-.415.291-1.367 1.216-2.117 1.156-.937 1.446-.973.93-.113-1.137 1.892.56 1.459 3.367-.859 1.375-1.136 1.95-1.782 1.278-1.436-.672.345-2.247-.019-3.5-.809-3.028-1.911-7.933-3.284-5.778-1.617 1.272.984 1.222 1.069-.332.565-1.007-.327-2.046-.594-2.309-.594-.262 0-.226-.406.081-.903.505-.816-.559-1.366-6.94-3.589-1.665-.58-1.749-.5-.5.474 1.19.928 1.208 1.092.087.79-.777-.209-1.514-1.031-1.637-1.826-.124-.795-.484-3.021-.8-4.946-.317-1.925-.838-11.15-1.159-20.5-.321-9.35-.779-18.252-1.019-19.782-.352-2.251.043-2.963 2.072-3.735 3.097-1.177 3.819-2.886 2.555-6.048-.93-2.328-.975-2.339-1.036-.252-.098 3.382-3.342 3.746-7.605.853-4.922-3.34-8.336-3.209-13.004.501M58 119.941c0 .582-1.462 1.066-3.25 1.074-2.466.012-2.888.249-1.75.985 1.244.804 1.159.975-.5 1-1.659.025-1.744.196-.5 1s1.159.975-.5 1c-1.659.025-1.744.196-.5 1 1.235.798 1.25.972.083.985-.779.008-1.143.288-.81.621.334.334-.212 1.486-1.213 2.56-2.791 2.996-5.982 14.409-7.528 26.925-1.504 12.177-.866 22.828 2.061 34.409 2.081 8.234 10.48 25.085 15.099 30.294l3.808 4.294 5.5-1.656c10.446-3.146 18.236-7.628 25.048-14.412 9.838-9.796 12.173-19.008 7.789-30.725-2.717-7.263-10.736-15.46-19.791-20.23-12.283-6.47-18.977-14.83-19.024-23.756-.012-2.305-.479-4.474-1.038-4.819-.559-.346-.702-1.137-.318-1.759 1.2-1.942.97-5.934-.372-6.449-.706-.27-1.053-.863-.772-1.318.281-.454.053-1.108-.506-1.454-.559-.345-1.016-.151-1.016.431M120 152c.825.533 2.175.945 3 .914.989-.036.819-.347-.5-.914-2.749-1.181-4.328-1.181-2.5 0m69.75 14.662c.688.278 1.813.278 2.5 0 .688-.277.125-.504-1.25-.504s-1.937.227-1.25.504m-3.937 1.021c.721.289 1.584.253 1.916-.079.332-.332-.258-.568-1.312-.525-1.165.048-1.402.285-.604.604m-50.307 24.297c-.345 1.089-.164 2.776.403 3.75.841 1.444 1.036 1.08 1.061-1.98.033-4.145-.504-4.794-1.464-1.77M150 194c0 3.328.242 3.476 3.149 1.92 1.922-1.029 1.935-1.169.279-3-2.446-2.702-3.428-2.393-3.428 1.08m3.753 6.358l-3.748 2.142-.002 13.673c-.003 13.124-.103 13.793-2.503 16.645-2.271 2.698-2.5 3.815-2.5 12.183 0 7.99.21 9.132 1.582 8.606.87-.334 1.995-.607 2.5-.607.505 0 .918-3.287.918-7.304 0-7.034.129-7.429 3.5-10.696 3.282-3.181 3.5-3.791 3.5-9.788 0-4.882-.473-6.998-2-8.939-1.1-1.399-2-3.382-2-4.408 0-2.259 3.409-5.865 5.545-5.865 1.697 0 6.455 4.333 6.455 5.878 0 .533-1.125 2.306-2.5 3.94-2.174 2.584-2.5 3.936-2.5 10.38 0 7.155-.12 7.526-3.5 10.802-3.208 3.11-3.5 3.876-3.5 9.196 0 3.192.17 5.804.378 5.804s2.008-.681 4-1.513l3.622-1.514v-7.783c0-7.737.024-7.807 3.921-11.612 2.21-2.159 3.689-4.432 3.39-5.211-.292-.76.221-2.53 1.141-3.933 2.271-3.467 7.339-3.091 9.457.701 1.318 2.359 1.293 2.908-.242 5.25-1.271 1.94-2.559 2.615-4.994 2.615-2.398 0-4.14.887-6.477 3.298-2.836 2.925-3.196 3.94-3.196 9 0 6.232.556 6.668 5.096 3.986 3.266-1.929 3.652-3.8 1.314-6.384-3.119-3.446 1.583-8.81 5.138-5.86 1.761 1.461 1.897 5.115.252 6.76-.66.66-.814 1.2-.342 1.2 1.814 0 11.916-8.625 16.894-14.425 8.36-9.739 8.348-9.716 3.994-7.496-7.644 3.897-17.046 1.874-21.971-4.726-3.233-4.333-15.327-16.411-16.265-16.245-.336.06-2.296 1.073-4.357 2.25m-27.086 7.309c-1.465 1.465-.622 4.333 1.274 4.333 2.553 0 3.535-1.721 2.023-3.544-1.321-1.591-2.269-1.818-3.297-.789m29.774 3.429c-.373.603.007 1.781.845 2.618 1.822 1.823 3.714.92 3.714-1.773 0-2.124-3.382-2.751-4.559-.845m15.313 11.154c-.744 2.025.278 3.75 2.222 3.75 1.945 0 3-1.725 2.293-3.75-.239-.687-1.25-1.25-2.245-1.25-.996 0-2.017.563-2.27 1.25m-60.053 1.382c-.385.386-.701 1.558-.701 2.604 0 1.402.593 1.819 2.25 1.584 1.471-.209 2.25-1.008 2.25-2.306 0-1.984-2.472-3.208-3.799-1.882m59.993 12.007c-.933.934.194 2.361 1.865 2.361.793 0 1.441-.675 1.441-1.5 0-1.506-2.111-2.056-3.306-.861m-59.235 4.428c-.92 1.489.147 2.298 2.061 1.564.884-.339 1.327-1.07.984-1.624-.81-1.311-2.215-1.284-3.045.06" fill="#1976D2" fill-rule="evenodd"/></svg>